15_ID_stride5.mot
nRows=7
nColumns=38

name 15_ID_stride5.mot
datacolumns 38
datarows 7
range 3.2750000000 3.3050000000
endheader
time	pelvis_tilt_moment	pelvis_list_moment	pelvis_rotation_moment	pelvis_tx_force	pelvis_ty_force	pelvis_tz_force	hip_flexion_r_moment	hip_adduction_r_moment	hip_rotation_r_moment	knee_angle_r_moment	ankle_angle_r_moment	subtalar_angle_r_moment	mtp_angle_r_moment	hip_flexion_l_moment	hip_adduction_l_moment	hip_rotation_l_moment	knee_angle_l_moment	ankle_angle_l_moment	subtalar_angle_l_moment	mtp_angle_l_moment	lumbar_extension_moment	lumbar_bending_moment	lumbar_rotation_moment	arm_flex_r_moment	arm_add_r_moment	arm_rot_r_moment	elbow_flex_r_moment	pro_sup_r_moment	wrist_flex_r_moment	wrist_dev_r_moment	arm_flex_l_moment	arm_add_l_moment	arm_rot_l_moment	elbow_flex_l_moment	pro_sup_l_moment	wrist_flex_l_moment	wrist_dev_l_moment
        3.2750000000	        8.9612122440	     -117.8036145529	      -10.6408007207	       47.3573420370	       71.8138935372	       53.6256496610	     -108.7470902335	        0.8739329716	        0.6678913100	      -57.7596619234	       -0.1298634843	       -0.1205248550	        0.1225763285	       51.9130143012	       -1.5132215219	        5.1580449634	       21.4912893022	        5.7801063069	       -1.0234140122	        0.4202626804	      -41.9902935918	      -10.7378072669	        5.5081262156	       -0.0985695938	        0.7339820445	        0.7197112883	       -0.7762599832	        0.0405530373	        0.0568063587	        0.1184654174	       -1.7740771007	       -0.7862894417	       -0.4565900731	       -1.1400699317	       -0.0037412035	       -0.0798138723	        0.1131328336	
        3.2800000000	        3.3348290738	     -122.1601983480	      -11.2883216681	       -1.2560924815	      221.6613382501	      122.6557646561	     -108.8382876056	       12.0871042348	        0.5195154970	      -59.3325375452	        0.3384604614	       -0.2778238146	        0.1756163568	       48.3314767231	        0.2472974055	        5.4579193634	       23.2348708913	        5.8642483423	       -1.1278273071	        0.4210548779	      -30.6083445948	      -11.0046125715	        4.2704190534	       -1.6107744002	        0.8338968117	        0.8647771742	       -0.6563435625	        0.0383045894	        0.0693337653	        0.1190155689	       -3.0069202077	       -0.7811141509	       -0.2555575240	       -0.9084762113	       -0.0008477928	       -0.0508596424	        0.1094433659	
        3.2850000000	        4.0476684272	      -59.9240457239	       -7.9060988673	      -47.5507188961	      326.3709187030	      140.4543363385	      -60.4711454469	       16.5348239239	       -0.8801148472	      -29.5525735569	        8.5411657852	        3.6907360357	        0.2255708778	       46.7342015662	        0.7234554304	        5.5572336644	       24.5107941813	        5.8448278799	       -1.1925435474	        0.4099409095	      -13.7653370503	      -14.1258895545	        3.9009359571	       -3.1376840392	        1.1337465131	        1.1557556922	       -0.3800574981	        0.0380639865	        0.1012860241	        0.1051922928	       -4.4308324697	       -0.9262625253	       -0.1438690519	       -0.5471517271	       -0.0034101521	       -0.0274744116	        0.0875586669	
        3.2900000000	       17.5234430814	        4.1691011743	       -3.5938409940	      -77.4125386064	      359.5097865221	      121.5517834624	      -20.5828804370	        5.5112407329	        3.5777549625	       -5.1206912216	        6.1969820602	        7.5964774946	        0.2673191778	       48.4167360479	        0.5322705964	        5.1788044505	       25.0582771064	        5.7407313960	       -1.1757045407	        0.3912350554	        4.8017514062	      -18.5977629511	        4.5987114528	       -4.2151706092	        1.5927005528	        1.5410554152	        0.0467825590	        0.0388636955	        0.1467803899	        0.0776046107	       -5.6456583633	       -1.1733311973	       -0.1924259018	       -0.0713867696	       -0.0120485995	       -0.0203239892	        0.0487318070	
        3.2950000000	       42.7476042130	       62.6173060661	        2.5414622370	      -86.1036892154	      361.4986782966	       73.7835978865	        6.0185677514	      -18.1830956693	       14.2008857623	       14.7745659198	       -1.3159963581	       12.5992656252	        0.2945744957	       52.5081909669	        0.1595945179	        4.2438669150	       25.1529515569	        5.5364412762	       -1.1190798321	        0.3659041970	       21.6939479376	      -22.6903301555	        6.2710586016	       -4.5701617451	        2.1145050088	        1.9478586025	        0.5706297519	        0.0398044374	        0.1982049252	        0.0390255143	       -6.3886629245	       -1.4491302219	       -0.3255145185	        0.4625571094	       -0.0262854169	       -0.0197278777	       -0.0024452551	
        3.3000000000	       67.7704785632	      101.6445784952	       12.0958985870	      -70.8671026484	      283.1597725750	       -0.7882983871	       17.6658897310	      -47.1078659864	       30.2447234402	       27.3580873599	      -18.1133497018	       20.3984723447	        0.3059132293	       58.6133992032	       -0.1913366160	        2.7044656147	       24.3672697226	        5.2322669097	       -0.9797173795	        0.3347474315	       34.2587848790	      -24.8627103608	        8.8580698777	       -4.3947903131	        2.5731728189	        2.2980746484	        1.1255982640	        0.0400637036	        0.2468691850	       -0.0054284482	       -6.6549080617	       -1.6345348935	       -0.5570279220	        0.9965085120	       -0.0433978475	       -0.0330402416	       -0.0590225480	
        3.3050000000	       82.1440433326	      103.5108709125	       22.7652815149	      -34.5369922552	      161.0745280763	      -59.5251334088	       -5.8069807778	      -71.8211312764	       47.1388545910	       26.3964060257	      -43.2239001513	       29.8132019910	        0.2949709129	       64.0059196057	       -0.4464149514	        0.9679494189	       22.8276519398	        4.8392660418	       -0.8074297802	        0.2995304143	       41.6615823252	      -23.5651363331	       11.7484225123	       -3.6419305656	        2.8418312010	        2.5260796105	        1.6179593452	        0.0383673045	        0.2840219923	       -0.0473450016	       -6.4692478086	       -1.6343858218	       -0.7654854875	        1.4574706086	       -0.0591000257	       -0.0487239566	       -0.1102306886	
